<?xml version="1.0" encoding="UTF-8"?>
<svg xmlns="http://www.w3.org/2000/svg" version="1.1" viewBox="0 0 648.13 180.99">
  <!-- Generator: Adobe Illustrator 30.4.0, SVG Export Plug-In . SVG Version: 2.1.4 Build 226)  -->
  <defs>
    <style>
      .st0 {
        fill: #fea700;
      }

      .st1 {
        fill: #097;
      }

      .st2 {
        fill: #fff;
      }

      .st3 {
        fill: #e51030;
      }

      .st4 {
        fill: #b7ff01;
      }

      .st5 {
        fill: #1d2088;
      }

      .st6 {
        fill: #222;
      }
    </style>
  </defs>
  <g id="_レイヤー_2" data-name="レイヤー_2">
    <rect x="143.1" y="20.14" width="505.02" height="106.88" rx="17.08" ry="17.08"/>
    <rect x="6.21" y="6.59" width="219.35" height="101.94" rx="17.08" ry="17.08"/>
    <g>
      <rect class="st4" x="2.5" y="2.5" width="214.35" height="96.95" rx="14.58" ry="14.58"/>
      <path d="M202.27,101.94H17.08c-9.42,0-17.08-7.66-17.08-17.08V17.08C0,7.66,7.66,0,17.08,0h185.19c9.42,0,17.08,7.66,17.08,17.08v67.78c0,9.42-7.66,17.08-17.08,17.08ZM17.08,5c-6.66,0-12.08,5.42-12.08,12.08v67.78c0,6.66,5.42,12.08,12.08,12.08h185.19c6.66,0,12.08-5.42,12.08-12.08V17.08c0-6.66-5.42-12.08-12.08-12.08H17.08Z"/>
    </g>
  </g>
  <g id="_レイヤー_3" data-name="レイヤー_3">
    <g>
      <rect class="st2" x="138.26" y="16.05" width="500.02" height="101.88" rx="14.58" ry="14.58"/>
      <path d="M623.7,120.43H152.84c-9.42,0-17.08-7.66-17.08-17.08V30.63c0-9.42,7.66-17.08,17.08-17.08h470.86c9.42,0,17.08,7.66,17.08,17.08v72.71c0,9.42-7.66,17.08-17.08,17.08ZM152.84,18.55c-6.66,0-12.08,5.42-12.08,12.08v72.71c0,6.66,5.42,12.08,12.08,12.08h470.86c6.66,0,12.08-5.42,12.08-12.08V30.63c0-6.66-5.42-12.08-12.08-12.08H152.84Z"/>
    </g>
    <g>
      <rect class="st4" x="2.5" y="2.5" width="214.35" height="96.95" rx="14.58" ry="14.58"/>
      <path d="M202.27,101.94H17.08c-9.42,0-17.08-7.66-17.08-17.08V17.08C0,7.66,7.66,0,17.08,0h185.19c9.42,0,17.08,7.66,17.08,17.08v67.78c0,9.42-7.66,17.08-17.08,17.08ZM17.08,5c-6.66,0-12.08,5.42-12.08,12.08v67.78c0,6.66,5.42,12.08,12.08,12.08h185.19c6.66,0,12.08-5.42,12.08-12.08V17.08c0-6.66-5.42-12.08-12.08-12.08H17.08Z"/>
    </g>
  </g>
  <g id="_レイヤー_1" data-name="レイヤー_1">
    <g>
      <path d="M238.34,80.58v-35.54c0-.66.37-1.02,1.02-1.02h24.28v-10.24c0-.66.37-1.02,1.02-1.02h7.9c.66,0,1.02.37,1.02,1.02v10.24h24.5c.66,0,1.02.37,1.02,1.02v35.54c0,.66-.37,1.02-1.02,1.02h-24.5v16.82c0,.66-.37,1.02-1.02,1.02h-7.9c-.66,0-1.02-.37-1.02-1.02v-16.82h-24.28c-.66,0-1.02-.37-1.02-1.02ZM247.85,53.16v19.38h15.79v-19.38h-15.79ZM273.59,53.16v19.38h16.01v-19.38h-16.01Z"/>
      <path d="M330.32,99.44h-6.95c-.66,0-1.02-.37-1.02-1.02l.37-29.47c-1.97,5.19-4.39,10.24-7.17,14.4-.22.29-.51.51-.73.51-.29,0-.51-.22-.73-.58l-3.88-7.39c-.15-.22-.22-.51-.22-.73s.07-.51.29-.73c4.46-5.48,8.7-12.8,11.48-20.25h-7.68c-.66,0-1.02-.37-1.02-1.02v-6.87c0-.66.37-1.02,1.02-1.02h8.26v-11.48c0-.66.37-1.02,1.02-1.02h7.02c.66,0,1.02.37,1.02,1.02l-.07,11.48h6.51c.66,0,1.02.37,1.02,1.02v6.87c0,.66-.37,1.02-1.02,1.02h-6.43c2.41,5.12,6.14,10.31,9.58,14.04.29.29.37.58.37.88,0,.15,0,.37-.15.58l-3.66,6.51c-.22.37-.51.58-.8.58-.22,0-.44-.15-.66-.44-1.83-2.78-3.58-6.36-5.12-9.87l.37,31.95c0,.66-.37,1.02-1.02,1.02ZM340.49,53.67v-7.17c0-.66.37-1.02,1.02-1.02h20.69v-11.7c0-.66.37-1.02,1.02-1.02h7.17c.66,0,1.02.37,1.02,1.02v11.7h5.12c.66,0,1.02.37,1.02,1.02v7.17c0,.66-.37,1.02-1.02,1.02h-5.12v32.83c0,9.51-2.92,12.14-17.4,11.92-.58,0-.95-.22-1.17-.8l-2.71-7.6c-.07-.15-.07-.29-.07-.44,0-.44.37-.73,1.02-.66l3.36.07c6.65,0,7.75-1.32,7.75-4.68v-30.64h-20.69c-.66,0-1.02-.37-1.02-1.02ZM342.32,62.66c-.15-.22-.22-.37-.22-.58,0-.29.22-.51.66-.73l6.29-2.56c.15-.07.37-.07.51-.07.37,0,.66.15.88.51,3.44,5.04,6.07,10.97,7.6,16.45,0,.15.07.29.07.37,0,.44-.22.73-.66.88l-6.65,2.85c-.22.07-.37.15-.51.15-.37,0-.66-.29-.8-.73-1.46-5.48-4.09-11.63-7.17-16.53Z"/>
      <path d="M422.99,99.44h-7.75c-.66,0-1.02-.37-1.02-1.02v-33.27c-6.07,6.58-13.67,12.5-22.38,16.89-.22.07-.37.15-.51.15-.37,0-.66-.22-.88-.58l-4.46-7.31c-.15-.22-.15-.37-.15-.51,0-.37.22-.66.66-.88,14.77-6.14,26.25-17.84,31.44-27.93h-28.96c-.66,0-1.02-.37-1.02-1.02v-7.17c0-.66.37-1.02,1.02-1.02h61.57c.66,0,1.02.37,1.02,1.02v7.17c0,.66-.37,1.02-1.02,1.02h-21.94c-1.32,2.78-2.85,5.56-4.61,8.26v45.19c0,.66-.37,1.02-1.02,1.02ZM424.75,61.64c0-.22.15-.51.37-.73l4.83-4.9c.29-.29.51-.37.73-.37.29,0,.51.07.73.37,5.92,6.65,13.82,13.02,21.57,17.33.37.22.58.51.58.8,0,.15-.07.37-.22.58l-4.61,6.87c-.22.29-.51.51-.8.51-.22,0-.44-.07-.66-.22-8.19-4.97-16.09-11.85-22.23-19.52-.15-.22-.29-.51-.29-.73Z"/>
      <path d="M511.2,97.98l-2.56-7.09c-.07-.15-.15-.29-.15-.44,0-.44.37-.73,1.02-.66,6.43.22,8.26-1.97,8.77-8.99.44-5.41.51-11.55.51-17.11l-.07-8.7h-5.12c-.29,19.01-3.22,34.07-10.24,43.8-.22.29-.51.44-.8.44-.22,0-.44-.15-.66-.29l-5.26-4.02c-10.09,1.17-22.52,2.41-33.63,2.92h-.07c-.58,0-.95-.37-1.02-.95l-.58-5.78v-.22c0-.51.37-.88.95-.88,4.97-.15,10.09-.29,15.14-.58v-3.73h-11.92c-.66,0-1.02-.29-1.02-1.02v-4.61c0-.66.37-1.02,1.02-1.02h11.92v-3.14h-12.21c-.66,0-1.02-.29-1.02-1.02v-20.47c0-.66.37-1.02,1.02-1.02h12.21v-2.71h-13.75c-.66,0-1.02-.37-1.02-1.02v-4.83c0-.66.37-1.02,1.02-1.02h13.75v-2.49c-3.8.15-7.68.29-11.33.29-.59,0-1.02-.29-1.1-.95l-1.24-5.19c0-.51.37-.8.95-.8h3.8c9.29,0,18.94-.51,25.96-1.68h.22c.51,0,.8.22,1.02.73l1.97,4.75c.07.22.15.44.15.58,0,.37-.15.58-.51.66-3.22.44-7.46.88-12.06,1.17v2.92h12.72c.66,0,1.02.37,1.02,1.02v4.83c0,.66-.37,1.02-1.02,1.02h-12.72v2.71h12.06c.66,0,1.02.37,1.02,1.02v20.47c0,.73-.37,1.02-1.02,1.02h-12.06v3.14h11.55c.66,0,1.02.37,1.02,1.02v4.61c0,.73-.37,1.02-1.02,1.02h-11.55v3.22c4.17-.29,8.19-.66,11.92-1.17h.22c.51,0,.88.37.88.95v.73c4.97-8.26,6.87-19.89,7.02-34.44h-4.17c-.66,0-1.02-.37-1.02-1.02v-6.43c0-.66.37-1.02,1.02-1.02h4.17v-12.72c0-.66.37-1.02,1.02-1.02h6.58c.66,0,1.02.37,1.02,1.02v12.72h12.21c.66,0,1.02.37,1.02,1.02v11.48c0,7.46-.07,14.99-.44,22.38-.8,14.04-3.44,17.26-14.26,17.4-.66,0-1.02-.22-1.24-.8ZM477.42,59.01h-5.78v3.07h5.78v-3.07ZM477.42,67.2h-5.78v3.07h5.78v-3.07ZM490.95,59.01h-5.7v3.07h5.7v-3.07ZM490.95,67.2h-5.7v3.07h5.7v-3.07Z"/>
      <path d="M557.26,83.14v-4.53c-.15.07-.29.15-.44.15-.22,0-.44-.07-.66-.22l-4.9-2.78c-.66,8.34-2.12,16.67-5.05,22.59-.29.58-.73.8-1.32.51l-7.6-3.51c-.59-.29-.73-.8-.44-1.39,4.83-8.92,5.34-20.03,5.41-30.93l-.07-10.75c0-.66.29-1.02.95-1.02h12.5c-.8-2.12-1.75-4.31-2.92-6.51h-8.26c-.66,0-1.02-.37-1.02-1.02v-5.34c0-.66.37-1.02,1.02-1.02h21.79v-3.66c0-.66.37-1.02,1.02-1.02h8.99c.66,0,1.02.37,1.02,1.02v3.66h22.45c.66,0,1.02.37,1.02,1.02v5.34c0,.66-.37,1.02-1.02,1.02h-7.9c-.66,2.19-1.46,4.46-2.56,6.51h12.87c.66,0,1.02.37,1.02,1.02v6c0,.66-.37,1.02-1.02,1.02h-50.45v5.7c0,2.71-.07,5.48-.22,8.41,3.22-3.51,5.7-7.82,7.24-12.8.22-.58.58-.88,1.24-.8l5.92.95c.66.07,1.02.58.8,1.24l-1.1,3.14h7.31v-3.66c0-.66.37-1.02,1.02-1.02h7.53c.66,0,1.02.37,1.02,1.02v3.66h16.45c.66,0,1.02.37,1.02,1.02v5.26c0,.66-.37,1.02-1.02,1.02h-16.45v4.9h14.26c.66,0,1.02.37,1.02,1.02v4.75c0,.66-.37,1.02-1.02,1.02h-14.26v5.12h19.38c.66,0,1.02.37,1.02,1.02v6.07c0,.66-.37,1.02-1.02,1.02h-48.92c-.66,0-1.02-.37-1.02-1.02v-6.07c0-.66.37-1.02,1.02-1.02h19.96v-5.12h-14.62c-.66,0-1.02-.37-1.02-1.02ZM558.43,77.36h14.48v-4.9h-10.9c-1.02,1.75-2.27,3.36-3.58,4.9ZM581.1,44.75h-17.92c1.17,2.19,2.19,4.31,3,6.51h12.36c1.1-2.12,1.97-4.46,2.56-6.51Z"/>
    </g>
    <g>
      <g>
        <path d="M67.29,47.25c-.66,0-1.12.37-1.3,1.02l-5.56,20.77c-.18.66.09,1.02.75,1.02h27.35c.66,0,1.12-.37,1.3-1.02l5.37-20.06,8.33-1.8-9.12.06h-27.11ZM83.1,62.75h-12.65l2.21-8.26h12.65l-2.21,8.26Z"/>
        <path d="M92,72.84h-.06c-.38.04-.76.07-1.14.11l-2.36.21c-6.21.52-12.72.78-18.8.78-7.53,0-15.48-.07-22.13-2.27l2.45-9.14h7.24c.66,0,1.12-.37,1.3-1.02l1.59-5.92c.2-.73-.09-1.02-.75-1.02h-7.24l2.06-7.68h8.41c.66,0,1.12-.37,1.3-1.02l1.18-4.39,1.88,4.46c.12.37.37.51.74.51.15,0,.31-.07.55-.15,9.59-3.88,15.54-11.33,18.66-18.87h6.65c-.31,1.17-1.39,4.9-1.83,6-1.21,3.14-2.62,4.31-9.05,4.02-.66,0-1.08.22-1.22.73-.04.15-.06.22-.04.44l.46,5.12c.06.58.35.88,1.01.88,10.74.29,14.17-2.41,16.92-10.75.79-2.44,2.56-8.57,3.54-11.95l9.69-2.02h-13.77,0s-25.86,0-25.86,0c-.66,0-1.12.37-1.3,1.02l-1.47,5.48c-.18.66.09,1.02.75,1.02h7.24c-2.35,5.48-6.42,9.51-13.19,11.85-.07-.29-.34-.37-.71-.37h-8.77l1.86-6.95h7.31c.66,0,1.12-.37,1.3-1.02l1.61-6c.18-.66-.09-1.02-.75-1.02h-7.31l1.36-5.09,7.16-1.49h-13.77,0s-.46,0-.46,0c-.66,0-1.12.37-1.3,1.02l-1.49,5.56h-9.07c-.66,0-1.12.37-1.3,1.02l-1.61,6c-.18.66.09,1.02.75,1.02h9.07l-1.86,6.95h-11.11c-.66,0-1.1.29-1.3,1.02l-1.59,5.92c-.18.66.09,1.02.75,1.02h11.63l-5.37,20.03c-.91-1.24-1.61-2.71-2.11-4.39.98-2.85,2.17-6.73,3.04-9.73.18-.66-.02-1.02-.66-1.1l-5.97-.37c-.64-.07-1.1.29-1.3,1.02-2.26,8.99-6.21,19.89-10.5,26.91-.38.58-.35,1.02.16,1.32l5.39,3.07c.51.29,1.08.07,1.47-.58,1.65-3.14,3.21-6.8,4.59-10.31,3.55,5.85,9.86,8.48,19.3,9.29,3.92.37,9.42.58,15.2.58,6.22,0,12.71-.22,18.09-.66.6-.07,1.03-.29,1.33-.88l3.6-6.28,9.31-2.83-9.4.84Z"/>
      </g>
      <g>
        <path d="M130.09,35.62c.03.44.28.58.57.58.22,0,.46-.07.72-.22l7.3-4.31c.42-.22.65-.51.73-.8.06-.22.02-.37.01-.58-1.19-4.02-3.51-8.19-6.11-11.04-.16-.22-.36-.29-.58-.29s-.46.07-.81.29l-6.56,3.73c-.35.22-.56.44-.61.66-.06.22,0,.51.17.73,2.37,3.14,4.33,7.31,5.17,11.26Z"/>
        <path d="M196.85,21.81h-8.78s-.01,0-.02,0h-17.26l.9-3.35,7.79-1.62h-8.35s-.01,0-.02,0h-6.58c-.66,0-1.12.37-1.3,1.02l-1.06,3.95h-17.26c-.66,0-1.12.37-1.3,1.02l-1.47,5.48c-.18.66.09,1.02.75,1.02h17.26l-1.12,4.17h-15.57c-.66,0-1.12.37-1.3,1.02l-4.58,17.11c-.18.66.09,1.02.75,1.02h12.8c-5.1,4.31-11.66,7.75-18.25,9.72-.55.15-.85.44-.93.73-.06.22-.02.37.06.58l2.22,5.92c.12.37.37.51.67.51.22,0,.38-.07.62-.15,5.95-2.56,12.05-6.51,16.81-10.89l-3.4,12.14c-.18.66.09,1.02.75,1.02h6.51c.66,0,1.12-.37,1.3-1.02l3.07-11.99c2.79,4.61,7.14,8.56,11.69,10.97.51.29,1.06.15,1.51-.44l5.18-6.22c.2-.22.24-.37.3-.58.1-.37-.06-.58-.54-.73-5.71-1.9-10.43-5.56-13.52-9.58h12.8c.66,0,1.12-.37,1.3-1.02l4.58-17.11c.18-.66-.09-1.02-.75-1.02h-15.43l1.12-4.17h17.26c.66,0,1.12-.37,1.3-1.02l1.28-4.79,8.24-1.72ZM155.75,46.01h-8.41l1.57-5.85h8.41l-1.57,5.85ZM174.14,40.16l-1.57,5.85h-8.41l1.57-5.85h8.41Z"/>
        <path d="M172.01,73.35c-6.31.56-14.27.88-20.89.88-4.31,0-8.08-.15-10.41-.44-6.46-.73-10.34-2.63-11.41-7.09.02-.07-.05-.07-.03-.15l6.03-22.23c.18-.66-.09-1.02-.75-1.02h-14.77c-.66,0-1.12.37-1.3,1.02l-1.8,6.73c-.18.66.09,1.02.75,1.02h6.8l-4.23,15.79c-2.97,2.34-7.13,5.04-10.73,7.02-.42.22-.63.44-.71.73-.06.22-.04.44.04.66l2.62,6.58c.14.29.32.44.61.44,1.46,0,9.57-6.51,11.11-7.9,2.85,4.39,7.84,6.22,14.54,6.87,3.34.37,8.49.51,13.9.51,7.75,0,16.18-.37,20.73-.95.46-.07.88-.29,1.19-.88l3.66-6.31,8.55-2.8-13.51,1.5Z"/>
      </g>
    </g>
  </g>
  <g id="_レイヤー_11" data-name="_レイヤー_1">
    <g>
      <path class="st3" d="M479.01,140.18c-4.94,0-8.94,4-8.94,8.94v7.67c0,.71.56,1.26,1.26,1.26h15.35c.71,0,1.26-.56,1.26-1.26v-7.67c0-4.94-4-8.94-8.94-8.94Z"/>
      <path class="st0" d="M467.51,148.27h0c0-.71-.56-1.26-1.26-1.26h-13.59c-.71,0-1.26.56-1.26,1.26v13.59c0,.71.56,1.26,1.26,1.26h.5c7.94,0,14.35-6.44,14.35-14.35v-.5Z"/>
      <path class="st1" d="M469.45,178.67h0l-15.97-12.76h-.03c-.21-.15-.47-.26-.76-.26-.71,0-1.26.56-1.26,1.26v12.82c0,.71.56,1.26,1.26,1.26h16.06c.71,0,1.26-.56,1.26-1.26,0-.44-.21-.79-.53-1.03l-.03-.03Z"/>
      <path class="st5" d="M481.36,170.02h0s-.18-.32-.18-.5h0c0-.21.06-.38.18-.5h0l6.35-7.09c.21-.24.24-.35.24-.56,0-.44-.35-.76-.76-.76h-10.7c-4.94,0-8.94,4-8.94,8.94h0c0,4.94,4,8.94,8.94,8.94h10.7c.44,0,.76-.35.76-.76,0-.24-.06-.32-.24-.56l-6.35-7.09v-.06Z"/>
    </g>
    <polygon class="st6" points="537.02 178.49 541.38 178.49 541.38 162.47 554.23 178.49 557.99 178.49 557.99 177.41 557.99 154.7 553.67 154.7 553.67 170.94 540.64 154.7 537.02 154.7 537.02 155.94 537.02 157.32 537.02 157.62 537.02 157.62 537.02 178.49"/>
    <rect class="st6" x="526.32" y="154.7" width="4.41" height="23.76"/>
    <path class="st6" d="M574.57,158.32c4.59,0,8.29,3.71,8.29,8.29s-3.7,8.29-8.29,8.29-8.29-3.71-8.29-8.29,3.71-8.29,8.29-8.29M574.57,154.15c-6.88,0-12.47,5.59-12.47,12.47s5.59,12.47,12.47,12.47,12.47-5.59,12.47-12.47-5.59-12.47-12.47-12.47h0Z"/>
    <path class="st6" d="M628.21,158.44c4.59,0,8.29,3.71,8.29,8.29s-3.7,8.29-8.29,8.29-8.29-3.71-8.29-8.29,3.7-8.29,8.29-8.29M628.21,154.26c-6.88,0-12.47,5.59-12.47,12.47s5.59,12.47,12.47,12.47,12.47-5.59,12.47-12.47-5.59-12.47-12.47-12.47h0Z"/>
    <path class="st6" d="M609.98,171c-1.44,2.41-4.09,4.03-7.12,4.03-4.59,0-8.29-3.71-8.29-8.29s3.7-8.29,8.29-8.29c2.56,0,4.85,1.15,6.35,2.97l3.29-2.56c-2.29-2.79-5.76-4.59-9.64-4.59-6.88,0-12.47,5.59-12.47,12.47s5.59,12.47,12.47,12.47c4.35,0,8.17-2.23,10.41-5.62,0,0-3.29-2.59-3.29-2.59Z"/>
    <polygon class="st6" points="511.5 166.03 521.73 154.7 516 154.7 506.5 165.47 506.5 154.7 502.03 154.7 502.03 178.49 506.5 178.49 506.5 166.73 516.26 178.49 522.12 178.49 511.5 166.03"/>
    <g>
      <path class="st6" d="M338.44,171.53v-12.16h2.55v12.16h-2.55ZM339.71,167.73v-2h2.99c.73,0,1.31-.17,1.71-.55s.61-.9.61-1.6h0c0-.73-.2-1.25-.61-1.63s-.96-.55-1.71-.55h-2.99v-2.03h3.6c.84,0,1.6.17,2.24.52s1.13.84,1.51,1.45c.35.61.52,1.36.52,2.18h0c0,.84-.17,1.57-.52,2.21-.35.61-.84,1.1-1.51,1.45-.64.35-1.39.52-2.24.52h-3.6v.03Z"/>
      <path class="st6" d="M353.33,171.73c-.93,0-1.71-.17-2.38-.55-.67-.38-1.19-.9-1.57-1.63-.38-.7-.55-1.54-.55-2.53h0c0-.99.17-1.83.55-2.53.38-.7.9-1.25,1.57-1.63s1.45-.55,2.35-.55,1.68.17,2.35.55c.67.38,1.19.9,1.57,1.6.38.7.55,1.54.55,2.53h0c0,.99-.17,1.83-.55,2.55-.38.7-.9,1.25-1.57,1.63s-1.45.55-2.38.55h.06ZM353.33,169.79c.41,0,.75-.12,1.05-.32.29-.2.52-.52.67-.96.17-.41.23-.9.23-1.51h0c0-.61-.09-1.1-.23-1.51s-.41-.73-.7-.96-.64-.32-1.05-.32-.73.12-1.05.32c-.29.23-.52.52-.7.96-.17.41-.23.9-.23,1.48h0c0,.61.09,1.1.23,1.51.17.41.38.73.7.96.29.23.64.32,1.05.32l.03.03Z"/>
      <path class="st6" d="M360.99,171.53l-2.41-9.03h2.5l1.36,6.71h.06l1.6-6.71h2.35l1.6,6.71h.06l1.36-6.71h2.44l-2.38,9.03h-2.61l-1.63-6.39h-.06l-1.63,6.39h-2.61Z"/>
      <path class="st6" d="M377.16,171.73c-.93,0-1.71-.17-2.38-.58-.67-.38-1.16-.93-1.54-1.63-.35-.7-.55-1.54-.55-2.5h0c0-.96.17-1.8.55-2.5.35-.7.87-1.25,1.51-1.63s1.42-.58,2.29-.58,1.65.17,2.29.55c.64.38,1.13.9,1.48,1.57s.52,1.48.52,2.38v.75h-7.43v-1.57h6.27l-1.16,1.45v-.96c0-.52-.09-.96-.23-1.34s-.38-.64-.67-.81-.64-.26-1.02-.26-.73.09-1.02.29-.52.46-.7.81-.26.78-.26,1.31v.96c0,.49.09.93.26,1.28s.41.61.73.81c.32.17.67.29,1.1.29.35,0,.64-.06.87-.15.26-.12.44-.23.61-.41.15-.17.26-.32.32-.49v-.06h2.26v.09c-.09.32-.23.67-.44.99s-.46.64-.78.93-.75.49-1.22.67c-.49.17-1.05.26-1.68.26v.06Z"/>
      <path class="st6" d="M383.08,171.53v-9.03h2.47v1.57h.06c.15-.55.38-.99.73-1.31s.78-.46,1.34-.46h.38c.12,0,.23.03.32.06v2.18s-.23-.09-.38-.12-.32-.03-.49-.03c-.41,0-.75.09-1.05.23-.29.15-.49.38-.67.7s-.23.67-.23,1.1v5.05h-2.47v.06Z"/>
      <path class="st6" d="M393.82,171.73c-.93,0-1.71-.17-2.38-.58-.67-.38-1.16-.93-1.54-1.63-.35-.7-.55-1.54-.55-2.5h0c0-.96.17-1.8.55-2.5.35-.7.87-1.25,1.51-1.63.64-.38,1.42-.58,2.29-.58s1.65.17,2.29.55c.64.38,1.13.9,1.48,1.57s.52,1.48.52,2.38v.75h-7.43v-1.57h6.27l-1.16,1.45v-.96c0-.52-.09-.96-.23-1.34s-.38-.64-.67-.81-.64-.26-1.02-.26-.73.09-1.02.29-.52.46-.7.81-.26.78-.26,1.31v.96c0,.49.09.93.26,1.28s.41.61.73.81c.32.17.67.29,1.1.29.35,0,.64-.06.87-.15.26-.12.44-.23.61-.41.15-.17.26-.32.32-.49v-.06h2.26v.09c-.09.32-.23.67-.44.99s-.46.64-.78.93c-.32.29-.75.49-1.22.67-.49.17-1.05.26-1.68.26v.06Z"/>
      <path class="st6" d="M403.08,171.73c-.75,0-1.42-.17-1.97-.55-.55-.38-.99-.93-1.28-1.63-.29-.7-.44-1.54-.44-2.53h0c0-.99.15-1.83.44-2.53.29-.7.73-1.25,1.28-1.6.55-.38,1.19-.55,1.94-.55.44,0,.84.06,1.19.2s.67.35.96.61c.26.26.49.58.67.93h.06v-4.7h2.47v12.16h-2.47v-1.54h-.06c-.17.35-.38.67-.64.93-.26.26-.58.46-.93.61s-.75.2-1.19.2l-.03-.03ZM403.92,169.7c.41,0,.75-.12,1.05-.32.29-.23.55-.52.7-.93.17-.41.26-.87.26-1.42h0c0-.55-.09-1.02-.26-1.42-.17-.41-.41-.7-.7-.93-.29-.23-.64-.32-1.05-.32s-.75.12-1.07.32c-.29.2-.52.52-.7.93s-.23.87-.23,1.42h0c0,.55.09,1.02.23,1.42s.38.7.7.93c.29.2.67.32,1.07.32Z"/>
      <path class="st6" d="M418.79,171.73c-.44,0-.84-.06-1.19-.2s-.67-.35-.96-.61-.49-.58-.64-.93h-.06v1.54h-2.47v-12.16h2.47v4.7h.06c.17-.38.38-.67.67-.93s.58-.46.96-.61c.35-.15.75-.2,1.19-.2.75,0,1.42.17,1.97.55.55.38.96.9,1.28,1.6.29.7.44,1.54.44,2.53h0c0,.99-.15,1.83-.44,2.53-.29.7-.73,1.25-1.28,1.63s-1.22.55-1.97.55l-.03.03ZM417.97,169.7c.41,0,.75-.12,1.07-.32.29-.23.52-.52.7-.93s.23-.87.23-1.42h0c0-.55-.09-1.05-.23-1.42-.17-.41-.41-.7-.7-.93-.29-.2-.64-.32-1.05-.32s-.75.12-1.05.32-.52.52-.7.93-.26.87-.26,1.42h0c0,.55.09,1.02.26,1.42s.41.7.7.93c.29.2.67.32,1.05.32h-.03Z"/>
      <path class="st6" d="M425.29,174.52c-.23,0-.46,0-.7-.03-.23,0-.41-.06-.55-.09v-1.83s.2.03.35.06.29,0,.49,0c.38,0,.67-.06.87-.17s.38-.35.49-.64l.09-.29-3.19-9.03h2.7l2.03,7.55-.32-.49h.46l-.32.49,2.03-7.55h2.61l-3.11,9.2c-.23.7-.52,1.28-.9,1.68-.35.41-.78.7-1.28.87-.49.17-1.07.26-1.74.26h-.03Z"/>
    </g>
  </g>
</svg>